<svg
  version="1.1"
  xmlns="http://www.w3.org/2000/svg"
  width="16"
  height="16"
  viewBox="0 0 1024 1024"
>
  <title></title>
  <g id="icomoon-ignore"></g>
  <path
    fill="currentColor"
    d="M695.5 512l290.585-290.592c50.56-50.562 50.554-132.976-0.028-183.515-50.53-50.532-132.932-50.525-183.485 0.029l-290.581 290.565-290.56-290.566c-50.555-50.556-132.957-50.556-183.524 0.012-50.545 50.503-50.545 132.917 0.012 183.476l290.585 290.592-290.585 290.591c-50.555 50.556-50.555 132.958-0.012 183.501 50.576 50.534 132.953 50.54 183.495 0.041l290.589-290.618 290.571 290.577c50.576 50.534 132.953 50.54 183.496 0.040 50.579-50.58 50.586-132.982 0.028-183.541l-290.585-290.591z"
  ></path>
</svg>
