<svg xmlns="http://www.w3.org/2000/svg" width="16" height="16" viewBox="0 0 1024 1024"><path fill="currentColor" d="M695.5 512l290.585-290.592c50.56-50.562 50.554-132.976-.028-183.515-50.53-50.532-132.932-50.525-183.485.029L511.991 328.487 221.431 37.921c-50.555-50.556-132.957-50.556-183.524.012-50.545 50.503-50.545 132.917.012 183.476l290.585 290.592L37.919 802.592c-50.555 50.556-50.555 132.958-.012 183.501 50.576 50.534 132.953 50.54 183.495.041l290.589-290.618 290.571 290.577c50.576 50.534 132.953 50.54 183.496.04 50.579-50.58 50.586-132.982.028-183.541L695.501 512.001z"/></svg>